<svg xmlns="http://www.w3.org/2000/svg" viewBox="0 0 1200 630" role="img" aria-labelledby="title desc">
  <title id="title">Example App — Keep important tasks visible.</title>
  <desc id="desc">A demo social preview for a fictional productivity app.</desc>
  <defs>
    <linearGradient id="bg" x1="0" y1="0" x2="1" y2="1">
      <stop offset="0" stop-color="#F6F8FF"/>
      <stop offset="1" stop-color="#E9EEFF"/>
    </linearGradient>
    <filter id="shadow" x="-30%" y="-30%" width="160%" height="160%">
      <feDropShadow dx="0" dy="18" stdDeviation="18" flood-color="#17203A" flood-opacity=".16"/>
    </filter>
  </defs>
  <rect width="1200" height="630" fill="url(#bg)"/>
  <circle cx="1080" cy="80" r="170" fill="#FF786B" opacity=".16"/>
  <circle cx="1040" cy="590" r="240" fill="#315CFF" opacity=".10"/>
  <g transform="translate(92 92)">
    <rect width="78" height="78" rx="22" fill="#315CFF"/>
    <g transform="scale(.076171875)">
      <path fill="#FF786B" d="M 774 651 C 837 640 886 671 895 721 C 904 771 876 811 819 818 L 759 818 Z"/>
      <path fill="#F6F8FF" fill-rule="evenodd" d="M 246 742 C 214 622 211 454 257 337 C 314 194 446 126 594 151 C 742 176 834 299 843 463 C 851 588 835 704 788 793 C 765 836 724 860 678 860 L 273 860 C 220 860 192 818 202 772 C 208 752 223 741 246 742 Z M 367 711 L 367 454 C 367 355 431 286 536 278 C 642 270 718 341 731 445 C 742 531 737 637 717 711 Z"/>
      <path fill="#FF786B" d="M 561 329 C 481 338 433 393 421 463 C 403 568 453 661 532 691 C 576 708 619 704 659 687 C 603 642 579 575 584 501 C 589 425 621 370 682 344 C 641 325 601 322 561 329 Z"/>
    </g>
  </g>
  <text x="92" y="238" fill="#315CFF" font-family="Arial, Helvetica, sans-serif" font-size="28" font-weight="700" letter-spacing="2">EXAMPLE APP</text>
  <text x="92" y="326" fill="#17203A" font-family="Arial, Helvetica, sans-serif" font-size="62" font-weight="700">Keep important</text>
  <text x="92" y="398" fill="#17203A" font-family="Arial, Helvetica, sans-serif" font-size="62" font-weight="700">tasks visible.</text>
  <text x="96" y="456" fill="#52607D" font-family="Arial, Helvetica, sans-serif" font-size="26">Capture, organize, and finish everyday work.</text>
  <g transform="translate(874 220)" filter="url(#shadow)">
    <rect width="206" height="206" rx="54" fill="#F6F8FF"/>
    <g transform="scale(.201171875)">
      <path fill="#FF786B" d="M 774 651 C 837 640 886 671 895 721 C 904 771 876 811 819 818 L 759 818 Z"/>
      <path fill="#315CFF" fill-rule="evenodd" d="M 246 742 C 214 622 211 454 257 337 C 314 194 446 126 594 151 C 742 176 834 299 843 463 C 851 588 835 704 788 793 C 765 836 724 860 678 860 L 273 860 C 220 860 192 818 202 772 C 208 752 223 741 246 742 Z M 367 711 L 367 454 C 367 355 431 286 536 278 C 642 270 718 341 731 445 C 742 531 737 637 717 711 Z"/>
      <path fill="#FF786B" d="M 561 329 C 481 338 433 393 421 463 C 403 568 453 661 532 691 C 576 708 619 704 659 687 C 603 642 579 575 584 501 C 589 425 621 370 682 344 C 641 325 601 322 561 329 Z"/>
    </g>
  </g>
  <text x="96" y="568" fill="#7B86A2" font-family="Arial, Helvetica, sans-serif" font-size="16" letter-spacing="1">DEMO CONCEPT — NOT A PRODUCTION LISTING</text>
</svg>
